<svg width="320" height="42" viewBox="0 0 320 42" fill="none" xmlns="http://www.w3.org/2000/svg">
<path d="M67.3425 33.3065V8.61989H77.7754C78.9077 8.61989 79.9475 8.86328 80.8949 9.35006C81.8654 9.81366 82.6973 10.4395 83.3905 11.2276C84.0837 11.9926 84.6267 12.8734 85.0196 13.8702C85.4124 14.8437 85.6088 15.8289 85.6088 16.8256C85.6088 17.8687 85.4239 18.8886 85.0542 19.8854C84.6845 20.8589 84.1646 21.7282 83.4945 22.4931C82.8244 23.258 82.0156 23.8723 81.0682 24.3359C80.1208 24.7995 79.081 25.0313 77.9487 25.0313H72.1257V33.3065H67.3425ZM72.1257 20.8241H77.6715C78.5495 20.8241 79.2774 20.4649 79.8551 19.7463C80.4559 19.0277 80.7563 18.0541 80.7563 16.8256C80.7563 16.1997 80.6638 15.6434 80.479 15.1566C80.2941 14.6467 80.0515 14.2179 79.7511 13.8702C79.4507 13.5225 79.0926 13.2675 78.6766 13.1052C78.2838 12.9198 77.8794 12.8271 77.4635 12.8271H72.1257V20.8241Z" fill="#4F4F4F"/>
<path d="M109.838 33.4804C108.036 33.4804 106.395 33.1327 104.917 32.4373C103.461 31.7187 102.201 30.7799 101.138 29.6209C100.099 28.4388 99.2899 27.0943 98.7122 25.5876C98.1345 24.0809 97.8457 22.5395 97.8457 20.9632C97.8457 19.3174 98.1461 17.7412 98.7469 16.2345C99.3708 14.7278 100.214 13.395 101.277 12.236C102.363 11.077 103.646 10.1614 105.124 9.48914C106.603 8.79374 108.209 8.44604 109.942 8.44604C111.722 8.44604 113.339 8.81692 114.795 9.55868C116.274 10.2773 117.533 11.2276 118.573 12.4098C119.613 13.592 120.421 14.9364 120.999 16.4431C121.577 17.9498 121.866 19.4797 121.866 21.0328C121.866 22.6785 121.565 24.2548 120.964 25.7615C120.364 27.245 119.532 28.5662 118.469 29.7252C117.406 30.8611 116.135 31.7767 114.656 32.4721C113.177 33.1443 111.571 33.4804 109.838 33.4804ZM102.698 20.9632C102.698 22.0295 102.86 23.061 103.183 24.0577C103.507 25.0545 103.969 25.9353 104.57 26.7003C105.194 27.4652 105.945 28.0795 106.823 28.5431C107.724 29.0067 108.741 29.2385 109.873 29.2385C111.028 29.2385 112.045 29.0067 112.923 28.5431C113.824 28.0563 114.575 27.4188 115.176 26.6307C115.8 25.8426 116.262 24.9618 116.563 23.9882C116.886 22.9915 117.048 21.9831 117.048 20.9632C117.048 19.8969 116.874 18.8654 116.528 17.8687C116.204 16.872 115.731 15.9911 115.107 15.2262C114.506 14.4612 113.755 13.8586 112.854 13.4181C111.976 12.9545 110.982 12.7227 109.873 12.7227C108.718 12.7227 107.689 12.9661 106.788 13.4529C105.887 13.9165 105.136 14.5424 104.535 15.3305C103.934 16.0954 103.472 16.9763 103.149 17.973C102.848 18.9466 102.698 19.9433 102.698 20.9632Z" fill="#4F4F4F"/>
<path d="M134.443 20.7894C134.443 19.2827 134.708 17.7992 135.24 16.3388C135.794 14.8553 136.592 13.534 137.631 12.375C138.671 11.2161 139.942 10.2773 141.444 9.55868C142.946 8.8401 144.656 8.48081 146.574 8.48081C148.838 8.48081 150.791 8.97918 152.432 9.97592C154.095 10.9727 155.332 12.2707 156.14 13.8702L152.466 16.4084C152.143 15.713 151.75 15.1335 151.288 14.6699C150.826 14.1831 150.329 13.8006 149.797 13.5225C149.266 13.2443 148.711 13.0473 148.134 12.9314C147.556 12.7923 146.99 12.7227 146.435 12.7227C145.234 12.7227 144.182 12.9661 143.281 13.4529C142.403 13.9397 141.664 14.5771 141.063 15.3653C140.485 16.1302 140.046 17.011 139.746 18.0078C139.445 18.9813 139.295 19.9549 139.295 20.9285C139.295 22.0179 139.468 23.0726 139.815 24.0925C140.162 25.0893 140.647 25.9701 141.271 26.735C141.918 27.5 142.68 28.1142 143.558 28.5778C144.46 29.0414 145.442 29.2732 146.505 29.2732C147.059 29.2732 147.637 29.2037 148.238 29.0646C148.838 28.9255 149.405 28.7053 149.936 28.404C150.491 28.1026 150.999 27.7202 151.461 27.2566C151.923 26.7698 152.293 26.1903 152.57 25.5181L156.487 27.7781C156.094 28.7053 155.528 29.5282 154.789 30.2468C154.072 30.9422 153.252 31.5333 152.328 32.0201C151.426 32.5068 150.456 32.8777 149.416 33.1327C148.376 33.3877 147.36 33.5152 146.366 33.5152C144.61 33.5152 143.004 33.1443 141.548 32.4025C140.092 31.6608 138.833 30.6988 137.77 29.5166C136.73 28.3113 135.91 26.9552 135.309 25.4485C134.731 23.9187 134.443 22.3656 134.443 20.7894Z" fill="#4F4F4F"/>
<path d="M170.093 33.3065V8.65466H174.876V20.3721L185.205 8.61989H190.474L181.046 19.5724L191.063 33.3065H185.69L178.03 22.6322L174.876 25.9353V33.3065H170.093Z" fill="#4F4F4F"/>
<path d="M220.765 29.0994V33.3065H203.677V8.61989H220.453V12.8271H208.461V18.7727H218.824V22.6669H208.461V29.0994H220.765Z" fill="#4F4F4F"/>
<path d="M234.892 33.3065V8.61989H245.776C246.908 8.61989 247.948 8.86328 248.895 9.35006C249.866 9.81366 250.698 10.4395 251.391 11.2276C252.084 11.9926 252.627 12.8734 253.02 13.8702C253.413 14.8437 253.609 15.8289 253.609 16.8256C253.609 18.425 253.205 19.8854 252.396 21.2066C251.611 22.5047 250.536 23.4435 249.173 24.023L254.788 33.3065H249.415L244.39 25.0313H239.676V33.3065H234.892ZM239.676 20.8241H245.672C246.111 20.8241 246.515 20.7198 246.885 20.5112C247.278 20.3026 247.613 20.0244 247.89 19.6767C248.168 19.3059 248.387 18.877 248.549 18.3902C248.711 17.9035 248.791 17.3819 248.791 16.8256C248.791 16.2461 248.699 15.713 248.514 15.2262C248.329 14.7394 248.075 14.3222 247.752 13.9745C247.451 13.6036 247.093 13.3254 246.677 13.14C246.284 12.9314 245.88 12.8271 245.464 12.8271H239.676V20.8241Z" fill="#4F4F4F"/>
<path d="M286.374 12.8271H278.506V33.3065H273.758V12.8271H265.89V8.61989H286.374V12.8271Z" fill="#4F4F4F"/>
<path d="M302.6 8.61989L308.666 20.5112L314.836 8.61989H320L311.057 24.6836V33.3065H306.309V24.6141L297.401 8.61989H302.6Z" fill="#4F4F4F"/>
<path fill-rule="evenodd" clip-rule="evenodd" d="M5.94343 4.23544C5.21163 4.23544 4.50981 4.52381 3.99235 5.03711C3.47489 5.55041 3.18419 6.2466 3.18419 6.97252V19.1902C3.18419 24.2366 5.20508 29.0763 8.8023 32.6446C10.5835 34.4115 12.698 35.813 15.0252 36.7692C17.3524 37.7254 19.8467 38.2176 22.3656 38.2176C27.4528 38.2176 32.3317 36.2129 35.9289 32.6446C39.5261 29.0763 41.547 24.2366 41.547 19.1902V6.97252C41.547 6.2466 41.2563 5.55041 40.7389 5.03711C40.2214 4.52381 39.5196 4.23544 38.7878 4.23544H5.94343ZM5.94343 1.56445H38.7878C40.2337 1.56445 41.6204 2.13423 42.6428 3.14844C43.6653 4.16265 44.2397 5.53821 44.2397 6.97252V19.1902C44.2397 24.945 41.9351 30.464 37.8329 34.5333C33.7307 38.6025 28.167 40.8886 22.3656 40.8886C19.4931 40.8886 16.6487 40.3273 13.9948 39.2369C11.3409 38.1464 8.92953 36.5481 6.89833 34.5333C2.79616 30.464 0.491577 24.945 0.491577 19.1902V6.97252C0.491577 5.53821 1.06597 4.16265 2.08839 3.14844C3.11081 2.13423 4.49751 1.56445 5.94343 1.56445Z" fill="#27AE60"/>
<path fill-rule="evenodd" clip-rule="evenodd" d="M1.76257 2.35057C2.89113 1.21773 4.42178 0.581299 6.0178 0.581299H38.7134C40.3094 0.581299 41.8401 1.21773 42.9686 2.35057C44.0972 3.48342 44.7312 5.01989 44.7312 6.62198V18.9294C44.7312 24.8837 42.3748 30.5941 38.1805 34.8044C33.9861 39.0147 28.2973 41.3801 22.3656 41.3801C19.4285 41.3801 16.5202 40.7994 13.8066 39.6711C11.0931 38.5429 8.62757 36.8892 6.55073 34.8044C2.35637 30.5941 0 24.8837 0 18.9294V6.62198C0 5.01989 0.634016 3.48342 1.76257 2.35057ZM6.0178 1.76709C4.73508 1.76709 3.5049 2.27859 2.59788 3.18906C1.69086 4.09952 1.1813 5.33439 1.1813 6.62198V18.9294C1.1813 24.5692 3.41321 29.978 7.38604 33.9659C9.35318 35.9406 11.6885 37.5069 14.2587 38.5756C16.8289 39.6442 19.5836 40.1943 22.3656 40.1943C27.984 40.1943 33.3723 37.9539 37.3451 33.9659C41.318 29.978 43.5499 24.5692 43.5499 18.9294V6.62198C43.5499 5.33438 43.0403 4.09952 42.1333 3.18906L42.551 2.76981L42.1333 3.18905C41.2263 2.27859 39.9961 1.76709 38.7134 1.76709H6.0178ZM6.0178 4.4577C5.44597 4.4577 4.89756 4.68572 4.49322 5.0916C4.08887 5.49748 3.86171 6.04798 3.86171 6.62198V18.9294C3.86171 23.8556 5.81122 28.5801 9.28137 32.0634C10.9996 33.7882 13.0395 35.1564 15.2845 36.0898C17.5295 37.0232 19.9356 37.5037 22.3656 37.5037C27.2731 37.5037 31.9797 35.5467 35.4498 32.0634C38.92 28.5801 40.8695 23.8556 40.8695 18.9294V6.62198C40.8695 6.04798 40.6423 5.49748 40.238 5.0916C39.8336 4.68572 39.2852 4.4577 38.7134 4.4577H6.0178ZM3.65791 4.25312C4.28379 3.62486 5.13267 3.2719 6.0178 3.2719H38.7134C39.5985 3.2719 40.4474 3.62486 41.0733 4.25312C41.6991 4.88138 42.0508 5.73349 42.0508 6.62198V18.9294C42.0508 24.1701 39.9768 29.1962 36.2851 32.9019C32.5934 36.6076 27.5864 38.6895 22.3656 38.6895C19.7805 38.6895 17.2207 38.1784 14.8324 37.1853C12.4441 36.1923 10.274 34.7368 8.44607 32.9019C4.75438 29.1962 2.68041 24.1701 2.68041 18.9294V6.62198C2.68041 5.73349 3.03203 4.88138 3.65791 4.25312Z" fill="#27AE60"/>
<path fill-rule="evenodd" clip-rule="evenodd" d="M21.6828 7.20084C22.076 6.89497 22.6552 6.89497 23.0483 7.20084L33.0574 14.9877C33.291 15.1694 33.4255 15.4351 33.4255 15.7148V30.0426C33.4255 30.8332 33.0804 31.5915 32.4662 32.1505C31.852 32.7096 31.019 33.0237 30.1504 33.0237H14.5808C13.7121 33.0237 12.8791 32.7096 12.2649 32.1505C11.6507 31.5915 11.3057 30.8332 11.3057 30.0426V15.7148C11.3057 15.4351 11.4402 15.1694 11.6738 14.9877L21.6828 7.20084ZM13.4074 16.1555V30.0426C13.4074 30.3258 13.531 30.5975 13.751 30.7978C13.9711 30.9981 14.2696 31.1106 14.5808 31.1106H30.1504C30.4616 31.1106 30.76 30.9981 30.9801 30.7978C31.2002 30.5975 31.3238 30.3258 31.3238 30.0426V16.1555L22.3656 9.18625L13.4074 16.1555Z" fill="#27AE60"/>
<path fill-rule="evenodd" clip-rule="evenodd" d="M21.2076 6.37273C21.8803 5.86013 22.851 5.86013 23.5237 6.37273L33.7413 14.158C34.1508 14.47 34.4087 14.9458 34.4087 15.4698V29.7947C34.4087 30.8061 33.9573 31.7595 33.1823 32.4504C32.4098 33.1391 31.3765 33.5152 30.3126 33.5152H14.4186C13.3548 33.5152 12.3215 33.1391 11.5489 32.4504C10.774 31.7595 10.3226 30.8061 10.3226 29.7947V15.4698C10.3226 14.9458 10.5805 14.47 10.99 14.158L21.2076 6.37273ZM22.6015 7.54248C22.4716 7.44347 22.2597 7.44347 22.1298 7.54248L11.9122 15.3277C11.8447 15.3791 11.828 15.4346 11.828 15.4698V29.7947C11.828 30.3643 12.0812 30.927 12.5602 31.3541C13.0416 31.7833 13.7091 32.0352 14.4186 32.0352H30.3126C31.0222 32.0352 31.6897 31.7833 32.1711 31.3541C32.6501 30.927 32.9033 30.3643 32.9033 29.7947V15.4698C32.9033 15.4346 32.8865 15.3791 32.8191 15.3277L22.6015 7.54248ZM21.9046 8.35775C22.176 8.15095 22.5553 8.15095 22.8267 8.35775L31.9716 15.3256C32.1555 15.4658 32.2632 15.6817 32.2632 15.9105V29.7947C32.2632 30.2988 32.0379 30.7658 31.6653 31.0979C31.2951 31.4279 30.8075 31.6025 30.3126 31.6025H14.4186C13.9238 31.6025 13.4362 31.4279 13.066 31.0979C12.6934 30.7658 12.4681 30.2988 12.4681 29.7947V15.9105C12.4681 15.6817 12.5758 15.4658 12.7597 15.3256L21.9046 8.35775ZM13.9735 16.2732V29.7947C13.9735 29.857 14.0006 29.9333 14.0773 30.0016L13.5764 30.5447L14.0773 30.0016C14.1564 30.0721 14.2781 30.1226 14.4186 30.1226H30.3126C30.4532 30.1226 30.5749 30.0721 30.654 30.0016C30.7307 29.9333 30.7578 29.857 30.7578 29.7947V16.2732L22.3656 9.87882L13.9735 16.2732Z" fill="#27AE60"/>
<path fill-rule="evenodd" clip-rule="evenodd" d="M22.3096 5.966L42.671 22.6732L41.3301 24.3074L20.9687 7.60018L22.3096 5.966Z" fill="#27AE60"/>
<path fill-rule="evenodd" clip-rule="evenodd" d="M41.4329 25.3503L19.9257 7.70299L22.2067 4.92301L43.7139 22.5704L41.4329 25.3503ZM41.2272 23.2644L41.628 22.776L22.4124 7.00897L22.0116 7.49736L41.2272 23.2644Z" fill="#27AE60"/>
<path fill-rule="evenodd" clip-rule="evenodd" d="M22.0204 5.966L1.65897 22.6732L2.99988 24.3074L23.3613 7.60018L22.0204 5.966Z" fill="#27AE60"/>
<path fill-rule="evenodd" clip-rule="evenodd" d="M2.89709 25.3503L24.4043 7.70299L22.1232 4.92301L0.616031 22.5704L2.89709 25.3503ZM3.10273 23.2644L2.70198 22.776L21.9176 7.00897L22.3183 7.49736L3.10273 23.2644Z" fill="#27AE60"/>
</svg>
